<?xml version="1.0" encoding="UTF-8"?>
<!DOCTYPE svg PUBLIC "-//W3C//DTD SVG 1.1//EN" "http://www.w3.org/Graphics/SVG/1.1/DTD/svg11.dtd">
<!-- Creator: CorelDRAW 2020 (64-Bit) -->
<svg xmlns="http://www.w3.org/2000/svg" xml:space="preserve" width="297mm" height="210mm" version="1.1" style="shape-rendering:geometricPrecision; text-rendering:geometricPrecision; image-rendering:optimizeQuality; fill-rule:evenodd; clip-rule:evenodd"
viewBox="0 0 29700 21000"
 xmlns:xlink="http://www.w3.org/1999/xlink"
 xmlns:xodm="http://www.corel.com/coreldraw/odm/2003">
 <defs>
  <style type="text/css">
   <![CDATA[
    .fil1 {fill:#424242}
    .fil0 {fill:#FC77AE}
    .fil2 {fill:white}
   ]]>
  </style>
 </defs>
 <g id="Слой_x0020_1">
  <metadata id="CorelCorpID_0Corel-Layer"/>
  <g id="_1690511851872">
   <path class="fil0" d="M17526.58 15891.52l82.73 -528.62c-681.92,-251.55 -873.52,-550.6 -1326.43,-862.6 -616.02,-424.34 -904.29,204.59 -1505.25,238.31 -64.41,-380.7 -66.52,-325.36 260.64,-563.41 207.32,-150.86 411.27,-234.42 593.7,-321.72 -90.6,-370 -415.05,-801.41 -600.48,-1313.9 -727.61,-2011.13 302.21,-2993.52 -461.76,-3364.25 -999.97,-485.29 -564.62,619.72 -1507.21,374.5 -193.57,-774.47 46.23,-1426.9 641.13,-1626.03l537.31 760.53c1157.12,119.07 1064.73,-251.73 1581.54,-880.95 430.7,-524.37 735.65,-717.54 1319.31,-1193.03 -198.97,-383.42 -312.08,-363.9 -736.93,-633.92 -724.96,-460.73 -113.47,-343.78 -574.82,-917.46 -322.5,-401.04 -647.44,-248.34 -1004.87,-390.36 -897.99,-356.88 -863.02,-1085.8 -3453.38,-283.05 -1244.7,385.73 158.81,-391.49 -2139.71,505.66 -1896.29,740.13 -1410.06,2130.13 -2708.78,3046.51 -2582.54,1822.25 -254.05,2955.88 -372.12,3739.8 -180.47,419.59 -621.19,834.78 -911.6,1080.03 -916.48,773.89 -162.96,582.04 -74.61,1340.54 -248.01,197.67 -414.86,227.51 -659.4,438.01 5.83,1233.77 545.87,650.83 1338.49,788.71 48.89,8.5 1356.08,738.67 1552.16,848.04 -184.91,455.16 -600.94,783.92 -22.22,1171.38 595.17,304.64 665.2,-78.06 1170.57,-223 200.37,171.05 460.26,246.85 559.46,520.69 137.17,378.68 -58.78,223.52 105.09,799.68 -1665.72,20.38 -370.97,1971.59 363.07,1074.11 337.41,-412.57 -6.32,-543.6 147.18,-1097.84 516.03,-147.07 864.93,-64.27 1049.76,363.24 170.17,770.98 -622.43,497.72 -44.89,1515.81 1169.36,43.36 623.77,-855.62 595.92,-1444.02 2907.3,-759.92 2223.82,142.76 2418.61,1092.6 489.01,132.89 1209.59,133.12 1551.68,-222.74 514.93,-535.62 9.64,-721.49 5.05,-1359.88 56.48,-220.13 1057.82,-1087.93 1619.04,-1852.6 368.31,-501.88 277.87,-432.67 612.02,-618.77z"/>
   <path class="fil1" d="M17141.81 6610.35c-583.66,475.49 -888.61,668.66 -1319.31,1193.03 -516.81,629.22 -424.42,1000.02 -1581.54,880.95l-537.31 -760.53c-594.9,199.13 -834.7,851.56 -641.13,1626.03 942.59,245.22 507.24,-859.79 1507.21,-374.5 763.97,370.73 -265.85,1353.12 461.76,3364.25 185.43,512.49 509.88,943.9 600.48,1313.9 -182.43,87.3 -386.38,170.86 -593.7,321.72 -327.16,238.05 -325.05,182.71 -260.64,563.41 600.96,-33.72 889.23,-662.65 1505.25,-238.31 452.91,312 644.51,611.05 1326.43,862.6l-82.73 528.62c31.56,1789.88 -254.26,2671.88 554.24,2683.4 235.5,-392.88 140.18,-144.34 4.9,-558.43 -247.32,-757.1 29.31,335.95 -96.33,-258.68l55.41 -1139.25c75.4,-561.21 -64.99,-386.6 256.86,-588.84 259.99,115.59 108.02,-142.16 294.49,770.7 173.72,850.52 236.44,2844.9 370.65,3060.92 235.62,283.2 591.07,503.5 962.24,139.61 576.61,-565.31 -244.98,-1560.38 459.03,-2543.57 339.12,-473.6 155.69,-614.78 250.26,-1247.94 1746.18,-77.68 792.25,-648.29 1686.59,-1400.96 544.88,-88.16 625.7,62.04 1043.16,87.28 167.5,10.13 797.9,-89.95 1003.06,-125.09 -81.71,-565.34 -566.24,-875.62 -220.12,-1723.11l587.85 -1626.05c915.64,162.96 877.67,722.14 1379.4,758.58 705.41,-92.76 1305.49,-974.6 864.97,-1600.32 -452.01,-642.01 -1527.94,-43.94 -2352.96,-55.92 -41.88,-487.45 -87.88,-665.72 -204.25,-1069.45 -187.34,-650.02 -24.27,-415.02 -27.75,-1004.31 -599.47,-304.5 -171.74,186.57 -935.9,-795.96 -275.39,-354.07 -536.04,-607.83 -960.83,-769.03 261.04,-837.06 730.55,-998.78 1521.74,-1303.48 -23.03,-474.42 68.71,-1268.82 -175.03,-1545.88 -488.48,-555.21 -981.88,27.65 -1354.39,179.83 53.59,842.27 149.55,2349.92 -923.5,2106.01 1.39,-1196.94 297.68,-484.54 -567.22,-1139.81 -616.18,-466.83 -242.44,-672.22 -1522.49,-562.04 -299.47,-1451.63 -132.13,-1722.66 -38.21,-3095.99 74.31,-1086.65 -1055.47,-1616.25 -1902.42,-980.83 -630.06,472.68 -1071.5,1612.65 -511.32,2499.68 206.83,327.53 1181.9,1055.01 1508.05,1949.58 -307.22,390.97 -569.26,549.72 -653.63,1311.52 -298.31,84.17 -498.68,199.08 -741.32,306.66z"/>
   <path class="fil1" d="M27460.55 1348.82c419.8,236.16 543.36,420.92 1219.93,419.96 50.3,-68.07 1072.2,-1075.52 -47.78,-1494.97 -831.83,-311.56 -1152.16,247.45 -1172.15,1075.01z"/>
   <path class="fil0" d="M2468.49 14200.7c-230.77,110.55 -276.37,76.58 -513.37,338.18 -561.46,619.75 -123.65,1519.98 737.53,1085.88 1143.38,-576.36 743.02,-1887.35 -224.16,-1424.06z"/>
   <path class="fil0" d="M2328.87 9462.17l825.84 -29.55c291.88,-787.34 205.68,-700.04 -223.73,-1213.53 -947.71,-37 -1201.87,611.91 -602.11,1243.08z"/>
   <path class="fil0" d="M6374.84 2237.41c-56.22,507.51 26.65,588.09 190.51,889.78 634.81,109.22 1360.12,-9.27 972.16,-821.92 -294.68,-617.23 -799.9,-389.4 -1162.67,-67.86z"/>
   <path class="fil0" d="M7992.78 4377.55c391.56,82.42 786.25,26.45 1121.67,-192.24 307.12,-663.01 -191.53,-965.52 -813.44,-976.3 -364.44,410.46 -553.21,565.77 -308.23,1168.54z"/>
   <path class="fil1" d="M24609.51 14119.26l695.03 101.03c333.07,-562.59 389.71,-479.29 194.3,-1106.26 -921.66,-293.43 -1220.35,150.76 -889.33,1005.23z"/>
   <path class="fil0" d="M8071.12 19730.96c-1218.19,-23.58 -908.45,1547.82 312.84,920.92 70.26,-597.64 40.97,-606.3 -312.84,-920.92z"/>
  </g>
  <g id="_1690511852784">
   <path class="fil2" d="M12105.03 2500.75c1019.75,283.81 1563.38,571.05 2355.47,1110.27 225.27,153.36 164.67,105.58 382.51,309.68 1366.6,1280.36 2200.76,2588.16 2352.79,4906.87l96.79 -88.5c56.56,-62.89 53.39,-49.83 116.29,-139.47 410.81,-585.51 763.15,-1656.46 853.15,-2380.64 133.27,-1072.7 -163.04,-3221.63 -822.51,-3588.88 -1210.87,-674.3 -4039.17,-872.37 -5334.49,-129.33z"/>
   <path class="fil2" d="M16060.3 11254.72c2530.11,258.09 4426.38,-1178.26 5318.53,-2455.41 808.39,-1157.27 -1427.58,-4764.57 -2377.45,-5162.71 353.5,1712.16 410.6,3101.66 -350.38,4661.46 -774.27,1587.03 -1381.26,1985.73 -2590.7,2956.66z"/>
   <path class="fil2" d="M17049.11 15628.37c-585.93,-320.04 -2316.77,-635.36 -3471.33,-2178.86 -973.31,-1301.25 -1555.15,-2327.34 -1621.84,-4182.85 -451.98,288.7 -958.16,1825.71 -1050.22,2526.32 -138.97,1057.46 -1.21,2166.81 402.51,3087.33 281.34,641.54 314.62,566.77 964.43,797.87 1554.14,552.74 3254.6,528.93 4776.45,-49.81z"/>
   <path class="fil2" d="M7661.21 7901.52c514.54,-284.03 1231.25,-1421.06 3526.18,-1913.31 1870.53,-401.22 3031.76,48.8 4523.61,656.89 -651.26,-2157.38 -4387.31,-4031.8 -5404.02,-3159.9 -772.64,662.58 -770.61,544.68 -1467.7,1535.68 -581.52,826.72 -952.53,1687.95 -1178.07,2880.64z"/>
   <path class="fil2" d="M10137.78 14458.74c-524.5,-2746.19 -161.2,-4300.62 1465.25,-6355.11l1108.97 -973.56c191.94,-128.43 272.33,-124.27 334.68,-303.91 -2738.5,-53.44 -4162.44,1001.9 -5263.33,2460.05 -299.61,396.84 -125.98,996.38 20.91,1549.7 362.82,1366.67 1272.88,2859.58 2333.52,3622.83z"/>
   <path class="fil2" d="M13444.22 11458.41c210.58,738.17 1310.15,1920.68 1800.8,2247.48 754.25,502.4 1683.56,978.22 2822.91,1108.62 559.1,63.99 632.16,-31.41 1339.17,-661.36 958.09,-853.67 1889.3,-2544.07 2066.39,-3932.25 -544.74,419.78 -874.33,773.16 -1585.61,1171.86 -558.97,313.36 -1222.14,574.41 -1914,714.49 -2257.18,456.98 -3115.56,-202.44 -4529.66,-648.84z"/>
   <path class="fil2" d="M14491.31 7251.89c-445.8,150.4 -1451.26,603.09 -1549.33,1035.26 -42.6,187.71 -47.51,688.94 -42.75,895.63 18.18,789.84 40.44,841.3 594.3,1185.64 269.51,167.52 881.23,547.06 1223.85,475.39 241.67,-50.5 1396.08,-599.3 1493.11,-1049.08 48.14,-223.14 47.99,-685.47 41.75,-923.25 -21.28,-811.87 -87.85,-839.55 -644.08,-1162.26 -279.51,-162.18 -825.61,-555.57 -1116.85,-457.33z"/>
  </g>
 </g>
</svg>
